<svg width="23" height="22" viewBox="0 0 23 22" fill="none" xmlns="http://www.w3.org/2000/svg">
<g clip-path="url(#clip0_446_159)">
<path d="M16.0546 2.79583C18.6671 2.79583 20.8213 5.17917 20.8213 8.06667C20.8213 11.1833 18.1171 13.1083 15.5505 15.4C12.9838 17.6917 11.6546 18.9292 11.1963 19.2042C10.6921 18.8833 9.04212 17.3708 6.84212 15.4C4.22962 13.1083 1.57129 11.1833 1.57129 8.06667C1.57129 5.17917 3.72546 2.79583 6.33796 2.79583C8.26296 2.79583 9.31712 3.7125 10.0505 4.76667C10.9213 5.95833 11.0588 6.55417 11.1963 6.55417C11.3338 6.55417 11.4713 5.95833 12.3421 4.76667C13.0755 3.7125 14.1296 2.79583 16.0546 2.79583ZM16.0546 1.42083C13.9921 1.42083 12.4338 2.24583 11.1963 3.9875C9.95879 2.29167 8.40046 1.46667 6.33796 1.46667C2.94629 1.42083 0.196289 4.4 0.196289 8.06667C0.196289 11.4125 2.67129 13.5667 5.05462 15.6292C5.32962 15.8583 5.65046 16.1333 5.92546 16.4083L6.97962 17.325C8.99629 19.1125 10.0046 20.0292 10.463 20.3042C10.6921 20.4417 10.9671 20.5333 11.1963 20.5333C11.4713 20.5333 11.7005 20.4417 11.9296 20.3042C12.388 20.0292 13.213 19.2958 15.5046 17.1875L16.4213 16.3625C16.7421 16.0875 17.0171 15.8125 17.338 15.5833C19.7671 13.5667 22.1963 11.4583 22.1963 8.06667C22.1963 4.4 19.4463 1.42083 16.0546 1.42083Z" fill="#262626"/>
</g>
<defs>
<clipPath id="clip0_446_159">
<rect width="22" height="22" fill="white" transform="translate(0.196289)"/>
</clipPath>
</defs>
</svg>
