<svg width="23" height="22" viewBox="0 0 23 22" fill="none" xmlns="http://www.w3.org/2000/svg">
<g clip-path="url(#clip0_446_151)">
<path d="M14.7713 22H7.62129C4.59629 22 3.22129 21.2667 2.07546 20.1667C0.929622 18.975 0.196289 17.6 0.196289 14.575V7.425C0.196289 4.4 0.929622 3.025 2.02962 1.87917C3.22129 0.733333 4.59629 0 7.62129 0H14.7713C17.7963 0 19.1713 0.733333 20.3171 1.83333C21.463 3.025 22.1963 4.4 22.1963 7.425V14.575C22.1963 17.6 21.463 18.975 20.363 20.1208C19.1713 21.2667 17.7963 22 14.7713 22ZM7.62129 1.375C4.77962 1.375 3.77129 2.10833 2.99212 2.84167C2.30462 3.575 1.57129 4.58333 1.57129 7.425V14.575C1.57129 17.4167 2.30462 18.425 3.03796 19.2042C3.77129 19.9375 4.77962 20.625 7.62129 20.625H14.7713C17.613 20.625 18.6213 19.8917 19.4005 19.1583C20.1338 18.425 20.8213 17.4167 20.8213 14.575V7.425C20.8213 4.58333 20.088 3.575 19.3546 2.79583C18.6213 2.10833 17.613 1.375 14.7713 1.375H7.62129Z" fill="#262626"/>
<path d="M16.8336 11.6875H5.55859C5.19193 11.6875 4.87109 11.3667 4.87109 11C4.87109 10.6333 5.19193 10.3125 5.55859 10.3125H16.8336C17.2003 10.3125 17.5211 10.6333 17.5211 11C17.5211 11.3667 17.2003 11.6875 16.8336 11.6875Z" fill="#262626"/>
<path d="M11.1963 17.325C10.8296 17.325 10.5088 17.0042 10.5088 16.6375V5.3625C10.5088 4.99583 10.8296 4.675 11.1963 4.675C11.563 4.675 11.8838 4.99583 11.8838 5.3625V16.6375C11.8838 17.0042 11.563 17.325 11.1963 17.325Z" fill="#262626"/>
</g>
<defs>
<clipPath id="clip0_446_151">
<rect width="22" height="22" fill="white" transform="translate(0.196289)"/>
</clipPath>
</defs>
</svg>
