<svg width="25" height="24" viewBox="0 0 25 24" fill="none" xmlns="http://www.w3.org/2000/svg">
<path d="M5.59619 19.2C6.05736 18.6835 8.21724 16.3067 8.8502 16.3067H15.5426C16.4598 16.3067 18.3322 18.2769 18.7962 18.9714M21.7962 12C21.7962 17.3019 17.4981 21.6 12.1962 21.6C6.89426 21.6 2.59619 17.3019 2.59619 12C2.59619 6.69807 6.89426 2.4 12.1962 2.4C17.4981 2.4 21.7962 6.69807 21.7962 12ZM15.635 8.72796C15.635 6.89645 14.0889 5.4 12.1965 5.4C10.3041 5.4 8.75793 6.89645 8.75793 8.72796C8.75793 10.5595 10.3041 12.0559 12.1965 12.0559C14.0889 12.0559 15.635 10.5595 15.635 8.72796Z" stroke="black" stroke-width="2"/>
</svg>
