<svg width="23" height="22" viewBox="0 0 23 22" fill="none" xmlns="http://www.w3.org/2000/svg">
<g clip-path="url(#clip0_446_156)">
<path fill-rule="evenodd" clip-rule="evenodd" d="M11.1963 0C5.14629 0 0.196289 4.95 0.196289 11C0.196289 17.05 5.14629 22 11.1963 22C17.2463 22 22.1963 17.05 22.1963 11C22.1963 4.95 17.2463 0 11.1963 0ZM11.1963 20.625C5.87962 20.625 1.57129 16.3167 1.57129 11C1.57129 5.68333 5.87962 1.375 11.1963 1.375C16.513 1.375 20.8213 5.68333 20.8213 11C20.8213 16.3167 16.513 20.625 11.1963 20.625ZM15.8713 5.40833L9.08796 8.61667C8.95046 8.6625 8.81296 8.8 8.76712 8.9375L5.55879 15.7208C5.42129 15.9958 5.46712 16.3167 5.69629 16.5C5.83379 16.6375 6.01712 16.6833 6.20046 16.6833C6.29212 16.6833 6.38379 16.6833 6.47546 16.6375L13.2588 13.4292C13.3963 13.3833 13.5338 13.2458 13.5796 13.1083L16.788 6.325C16.9255 6.05 16.8796 5.72917 16.6505 5.54583C16.4671 5.31667 16.1463 5.27083 15.8713 5.40833ZM12.4796 12.2833L9.95879 9.7625L14.7713 7.47083L12.4796 12.2833Z" fill="#262626"/>
</g>
<defs>
<clipPath id="clip0_446_156">
<rect width="22" height="22" fill="white" transform="translate(0.196289)"/>
</clipPath>
</defs>
</svg>
